<?xml version="1.0" encoding="UTF-8"?>
<svg width="26px" height="24px" viewBox="0 0 26 24" version="1.1" xmlns="http://www.w3.org/2000/svg" xmlns:xlink="http://www.w3.org/1999/xlink">
    <title>ic_logo_hypercloud_blue</title>
    <g id="Ch1.Installer-Layout" stroke="none" stroke-width="1" fill="none" fill-rule="evenodd">
        <g id="00_00_07_Kubernetes" transform="translate(-919.000000, -281.000000)" fill="#1976D2">
            <g id="banner" transform="translate(829.000000, 267.000000)">
                <g id="Group-3">
                    <g id="Group-5" transform="translate(90.000000, 0.000000)">
                        <path d="M13.415603,14 C16.940379,14 19.842757,16.534301 20.267462,19.806701 C20.287298,19.806431 20.30667,19.803704 20.326622,19.803704 C23.020838,19.803704 25.205118,22.030907 25.205118,24.778076 C25.205118,27.525488 23.020838,29.703605 20.326622,29.703605 L12.624,29.703 L12.6250219,30.3930352 C13.8143499,30.7055969 14.7506129,31.660479 15.0568722,32.8732962 L20.439403,32.873621 L20.439403,34.449854 L15.0913594,34.4498406 C14.7691697,36.0147293 13.4078565,37.18976 11.777364,37.18976 C10.1468968,37.18976 8.78558686,36.0147293 8.46339759,34.4498406 L3.115586,34.449854 L3.115586,32.873621 L8.49788468,32.8732962 C8.80416964,31.6603754 9.74056384,30.7054338 10.9300224,30.3929552 L10.93,29.703 L3.252292,29.703605 L3.252292,29.757875 C1.358795,29.074208 1.77191595e-12,26.943179 1.77191595e-12,24.778076 C1.77191595e-12,22.030907 2.184164,19.803704 4.878496,19.803704 C5.459888,19.803704 6.01518,19.912811 6.532366,20.103053 C6.814362,16.688444 9.78489,14 13.415603,14 Z M11.777364,32.010404 C10.842346,32.010404 10.084547,32.783333 10.084547,33.736838 C10.084547,34.690289 10.842346,35.463353 11.777364,35.463353 C12.712411,35.463353 13.470558,34.690289 13.470558,33.736838 C13.470558,32.783333 12.712411,32.010404 11.777364,32.010404 Z M20.84404,23.165825 L15.764603,23.165825 L15.764603,24.892259 L17.175,24.892 L16.611258,28.345181 L18.304336,28.345181 L18.868,24.892 L20.84404,24.892259 L20.84404,23.165825 Z" id="ic_logo_hypercloud"></path>
                    </g>
                </g>
            </g>
        </g>
    </g>
</svg>
