<?xml version="1.0" encoding="UTF-8"?>
<svg width="145px" height="146px" viewBox="0 0 145 146" version="1.1" xmlns="http://www.w3.org/2000/svg" xmlns:xlink="http://www.w3.org/1999/xlink">
    <title>img_finish_blue</title>
    <g id="Ch1.Installer-Layout" stroke="none" stroke-width="1" fill="none" fill-rule="evenodd">
        <g id="00_00_013_Kubernetes-" transform="translate(-1017.000000, -386.000000)">
            <g id="img_finish_blue" transform="translate(1016.110429, 385.398773)">
                <path d="M144.558282,73.3723571 C144.558282,113.341056 112.422339,145.744714 72.7791411,145.744714 C33.1369993,145.744714 1,113.341056 1,73.3723571 C1,33.4025943 33.1369993,1 72.7791411,1 C112.422339,1 144.558282,33.4025943 144.558282,73.3723571" id="Fill-33" fill="#4085EE"></path>
                <path d="M104.428774,47.893462 L109.361665,52.3031826 C110.351111,53.1901712 110.421376,54.6923067 109.515101,55.6605676 L65.9206767,101.074945 C65.3963631,101.635119 64.660387,101.893256 63.9415524,101.839856 C63.2491138,101.891694 62.5376786,101.661997 62.0079197,101.150381 L38.5004341,78.4850017 C37.5390481,77.5565404 37.5390481,76.0539175 38.5004341,75.1254561 L43.2899373,70.5083566 C44.2513233,69.5812957 45.8095819,69.5812957 46.7724202,70.5083566 L63.7303946,86.8608513 L100.994392,48.0433953 C101.899233,47.0751344 103.43646,47.0078746 104.428774,47.893462 Z" id="Combined-Shape" fill="#FFFFFF"></path>
            </g>
        </g>
    </g>
</svg>
