<?xml version="1.0" encoding="UTF-8"?>
<svg width="147px" height="147px" viewBox="0 0 147 147" version="1.1" xmlns="http://www.w3.org/2000/svg" xmlns:xlink="http://www.w3.org/1999/xlink">
    <title>img_empty</title>
    <g id="Ch1.Installer-Layout" stroke="none" stroke-width="1" fill="none" fill-rule="evenodd">
        <g id="00_00_01_administration" transform="translate(-887.000000, -409.000000)">
            <g id="img_empty" transform="translate(887.000000, 409.000000)">
                <polygon id="Fill-1" fill="#FFFFFF" points="20.833 46.8335 1.333 87.3335 1.333 144.1665 145.5 144.1665 145.5 89.0005 126 46.8335"></polygon>
                <g id="Group-25" transform="translate(0.000000, 1.500000)">
                    <path d="M127,43.6758 L20,43.6758 L0,86.0008 L0,89.1758 L49.185,89.1758 C48.997,88.1958 48.869,87.1948 48.805,86.1758 L3.236,86.1758 L21.9,46.6758 L125.093,46.6758 L143.614,86.1758 L96.945,86.1758 C96.881,87.1948 96.753,88.1958 96.565,89.1758 L146.834,89.1758 L146.834,85.9768 L127,43.6758 Z" id="Fill-10" fill="#535353"></path>
                    <rect id="Rectangle" fill="#535353" x="72" y="0" width="3" height="27" rx="1.5"></rect>
                    <rect id="Rectangle-Copy-8" fill="#535353" transform="translate(32.500000, 23.000000) rotate(-45.000000) translate(-32.500000, -23.000000) " x="31" y="9.5" width="3" height="27" rx="1.5"></rect>
                    <rect id="Rectangle-Copy-8" fill="#535353" transform="translate(113.500000, 23.000000) rotate(-315.000000) translate(-113.500000, -23.000000) " x="112" y="9.5" width="3" height="27" rx="1.5"></rect>
                    <path d="M1.75,87.5 L47.25,87.5 C47.25,87.5 52.334,112.5 73.417,111.5 C73.417,111.5 97,107.75 98,87.5 L145.5,87.5 L145.5,142.667 L2.037,142.667 L1.75,87.5 Z" id="Fill-21" fill="#DCEEFF"></path>
                    <path d="M146.834,86.167 L96.5,86.167 C96.5,99.237 85.904,109.834 72.833,109.834 C59.763,109.834 49.166,99.237 49.166,86.167 L0,86.167 L0,144 L146.834,144 L146.834,86.167 Z M143.834,89.167 L143.834,141 L3,141 L3,89.167 L46.334,89.167 C47.829,102.464 59.143,112.834 72.833,112.834 C86.523,112.834 97.837,102.464 99.332,89.167 L143.834,89.167 L143.834,89.167 Z" id="Fill-23" fill="#535353"></path>
                    <path d="M53.5,6.5 C54.3284271,6.5 55,7.17157288 55,8 L55,11.5 L58.5,11.5 C59.3284271,11.5 60,12.1715729 60,13 C60,13.8284271 59.3284271,14.5 58.5,14.5 L55,14.5 L55,18 C55,18.8284271 54.3284271,19.5 53.5,19.5 C52.6715729,19.5 52,18.8284271 52,18 L52,14.499 L48.5,14.5 C47.6715729,14.5 47,13.8284271 47,13 C47,12.1715729 47.6715729,11.5 48.5,11.5 L52,11.499 L52,8 C52,7.17157288 52.6715729,6.5 53.5,6.5 Z" id="Combined-Shape" fill="#535353"></path>
                    <path d="M94.5,15.5 C95.3284271,15.5 96,16.1715729 96,17 L96,19.5 L98.5,19.5 C99.3284271,19.5 100,20.1715729 100,21 C100,21.8284271 99.3284271,22.5 98.5,22.5 L96,22.5 L96,25 C96,25.8284271 95.3284271,26.5 94.5,26.5 C93.6715729,26.5 93,25.8284271 93,25 L93,22.499 L90.5,22.5 C89.6715729,22.5 89,21.8284271 89,21 C89,20.1715729 89.6715729,19.5 90.5,19.5 L93,19.499 L93,17 C93,16.1715729 93.6715729,15.5 94.5,15.5 Z" id="Combined-Shape" fill="#535353"></path>
                </g>
                <rect x="0" y="0" width="147" height="147"></rect>
            </g>
        </g>
    </g>
</svg>