<?xml version="1.0" encoding="UTF-8"?>
<svg width="23px" height="23px" viewBox="0 0 23 23" version="1.1" xmlns="http://www.w3.org/2000/svg" xmlns:xlink="http://www.w3.org/1999/xlink">
    <title>Group 2</title>
    <g id="Page-1" stroke="none" stroke-width="1" fill="none" fill-rule="evenodd">
        <g id="Ch1_Common12" transform="translate(-139.000000, -96.000000)">
            <g id="Group-4" transform="translate(38.000000, 96.000000)">
                <g id="Group-3" transform="translate(101.000000, 0.000000)">
                    <g id="Group-2" transform="translate(11.500000, 11.500000) rotate(-90.000000) translate(-11.500000, -11.500000) ">
                        <path d="M4,16 C4.55228475,16 5,16.4477153 5,17 C5,17.5522847 4.55228475,18 4,18 C3.44771525,18 3,17.5522847 3,17 C3,16.4477153 3.44771525,16 4,16 Z M19.5,10 C20.8807119,10 22,11.1192881 22,12.5 C22,13.8807119 20.8807119,15 19.5,15 C18.1192881,15 17,13.8807119 17,12.5 C17,11.1192881 18.1192881,10 19.5,10 Z M2,10 C2.55228475,10 3,10.4477153 3,11 C3,11.5522847 2.55228475,12 2,12 C1.44771525,12 1,11.5522847 1,11 C1,10.4477153 1.44771525,10 2,10 Z M5,4 C6.1045695,4 7,4.8954305 7,6 C7,7.1045695 6.1045695,8 5,8 C3.8954305,8 3,7.1045695 3,6 C3,4.8954305 3.8954305,4 5,4 Z M16.5,3 C17.8807119,3 19,4.11928813 19,5.5 C19,6.88071187 17.8807119,8 16.5,8 C15.1192881,8 14,6.88071187 14,5.5 C14,4.11928813 15.1192881,3 16.5,3 Z M10,1 C11.1045695,1 12,1.8954305 12,3 C12,4.1045695 11.1045695,5 10,5 C8.8954305,5 8,4.1045695 8,3 C8,1.8954305 8.8954305,1 10,1 Z" id="Combined-Shape" fill="#00A4C3" fill-rule="nonzero"></path>
                        <rect id="Throbber" fill="#D8D8D8" opacity="0" x="0.5" y="0.5" width="22" height="22"></rect>
                        <rect id="기존-TOP소스-참조-:-Loader(=Throbber)" fill="#D8D8D8" opacity="0" x="0.5" y="0.5" width="21" height="21"></rect>
                    </g>
                </g>
            </g>
        </g>
    </g>
</svg>