<?xml version="1.0" encoding="UTF-8"?>
<svg width="14px" height="14px" viewBox="0 0 14 14" version="1.1" xmlns="http://www.w3.org/2000/svg" xmlns:xlink="http://www.w3.org/1999/xlink">
    <title>ic_finish</title>
    <g id="Ch2.Common-Components" stroke="none" stroke-width="1" fill="none" fill-rule="evenodd">
        <g id="00_00_00" transform="translate(-345.000000, -863.000000)">
            <g id="Group-4-Copy-3" transform="translate(223.000000, 840.000000)">
                <g id="ic_finish" transform="translate(122.000000, 23.000000)">
                    <path d="M14,7 C14,10.8658529 10.8660588,14 7,14 C3.13404412,14 0,10.8658529 0,7 C0,3.13404412 3.13404412,0 7,0 C10.8660588,0 14,3.13404412 14,7" id="Fill-33" fill="#0992AC"></path>
                    <path d="M10.6211106,4.07272697 L11.2062758,4.5878251 C11.323649,4.69143397 11.3319842,4.86689797 11.2244772,4.98000023 L6.05307997,10.2848399 C5.99085177,10.3503068 5.90348972,10.380457 5.81817685,10.3741795 C5.73896864,10.3802583 5.65689543,10.3532988 5.59577778,10.2932654 L5.247,9.951 L5.06051057,9.78709176 C5.03513338,9.7647553 5.01485554,9.73907926 4.99973499,9.71140844 L2.88320219,7.63315785 C2.77226594,7.52418959 2.77226594,7.34783523 2.88320219,7.23886697 L3.4358725,6.69698408 C3.54680874,6.58818018 3.72661931,6.58818018 3.83772313,6.69698408 L5.798,8.619 L10.2137064,4.09024063 C10.3210434,3.97713837 10.5033972,3.96928177 10.6211106,4.07272697 Z" id="Combined-Shape" fill="#FFFFFF"></path>
                </g>
            </g>
        </g>
    </g>
</svg>
