<?xml version="1.0" encoding="UTF-8"?>
<svg width="16px" height="16px" viewBox="0 0 16 16" version="1.1" xmlns="http://www.w3.org/2000/svg" xmlns:xlink="http://www.w3.org/1999/xlink">
    <title>ic_setting</title>
    <g id="Ch1.Installer-Layout" stroke="none" stroke-width="1" fill="none" fill-rule="evenodd">
        <g id="00_00_07_administration-" transform="translate(-579.000000, -213.000000)">
            <g id="ic_setting" transform="translate(579.000000, 213.000000)">
                <rect id="Rectangle" x="-9.9475983e-14" y="0" width="16" height="16" rx="2"></rect>
                <path d="M8.1,11.0008905 C6.4434375,11.0008905 5.1,9.65757898 5.1,8.00023435 C5.1,6.34335844 6.4434375,5.00051558 8.1,5.00051558 C9.7584375,5.00051558 11.1,6.34335844 11.1,8.00023435 C11.1,9.65757898 9.7584375,11.0008905 8.1,11.0008905 L8.1,11.0008905 Z M13.5375,6.28055182 L13.1596875,5.36095054 C13.1596875,5.36095054 14.04,3.33004718 13.9621875,3.25271068 L12.7959375,2.08891354 C12.71625,2.0087648 10.7273438,2.93586539 10.7273438,2.93586539 L9.80859375,2.5576196 C9.80859375,2.5576196 8.99859375,0.5 8.8884375,0.5 L7.243125,0.5 C7.12921875,0.500937412 6.37921875,2.56324407 6.37921875,2.56324407 L5.46328125,2.94336468 C5.46328125,2.94336468 3.4321875,2.06125988 3.354375,2.14093991 L2.1909375,3.30426835 C2.10984375,3.38488579 3.0375,5.37407431 3.0375,5.37407431 L2.65875,6.29180077 C2.65875,6.29180077 0.6,7.10031872 0.6,7.21046464 L0.6,8.85749773 C0.6,8.97139331 2.6625,9.72179171 2.6625,9.72179171 L3.0421875,10.6381121 C3.0421875,10.6381121 2.1609375,12.668078 2.23828125,12.7463519 L3.40453125,13.9124926 C3.48328125,13.9912352 5.4721875,13.0641346 5.4721875,13.0641346 L6.3909375,13.4437865 C6.3909375,13.4437865 7.2009375,15.5 7.3125,15.5 L8.95875,15.5 C9.07125,15.5 9.82265625,13.4376933 9.82265625,13.4376933 L10.7414063,13.0566353 C10.7414063,13.0566353 12.7673438,13.9387401 12.8465625,13.8604662 L14.0123438,12.6952629 C14.0929688,12.6155829 13.1648438,10.6273318 13.1648438,10.6273318 L13.5417188,9.70819923 C13.5417188,9.70819923 15.6,8.89968128 15.6,8.78719183 L15.6,7.14250227 C15.5990625,7.02813799 13.5365625,6.28102053 13.5365625,6.28102053 L13.5375,6.28055182 Z" id="Fill-3" fill-opacity="0.8" fill="#FFFFFF"></path>
            </g>
        </g>
    </g>
</svg>