<?xml version="1.0" encoding="UTF-8"?>
<svg width="15px" height="15px" viewBox="0 0 15 15" version="1.1" xmlns="http://www.w3.org/2000/svg" xmlns:xlink="http://www.w3.org/1999/xlink">
    <title>ic_search</title>
    <g id="Ch1.Installer-Layout" stroke="none" stroke-width="1" fill="none" fill-rule="evenodd">
        <g id="00_00_07_administration-" transform="translate(-1318.000000, -462.000000)" fill="#444444" fill-rule="nonzero">
            <g id="ic_search" transform="translate(1318.000000, 462.000000)">
                <path d="M14.7081474,13.3844034 L11.1666635,9.8639194 C11.1216637,9.8196696 11.0736639,9.77991978 11.0241641,9.74616994 C11.7959106,8.72692457 12.2586585,7.46468032 12.2586585,6.09443655 C12.2586585,2.73445184 9.50917101,0.000714285714 6.12968639,0.000714285714 C2.75020177,0.000714285714 0.000714285714,2.73445184 0.000714285714,6.09443655 C0.000714285714,9.45442126 2.75020177,12.1881588 6.12968639,12.1881588 C7.46543031,12.1881588 8.6984247,11.7561608 9.70567012,11.0331641 C9.74241995,11.0871638 9.78441976,11.1404136 9.83316954,11.1899134 L13.3746534,14.7103973 C13.7429017,15.0763957 14.3166491,15.0996456 14.6556476,14.7621471 L14.7598971,14.6578976 C15.0996456,14.3211491 15.0756457,13.7504017 14.7081474,13.3851534 L14.7081474,13.3844034 Z M6.1289364,10.3124174 C3.78969704,10.3124174 1.88545571,8.41942597 1.88545571,6.09368656 C1.88545571,3.76794714 3.78894705,1.87495576 6.1289364,1.87495576 C8.46892575,1.87495576 10.3724171,3.76719714 10.3724171,6.09368656 C10.3724171,8.42017597 8.46817575,10.3124174 6.1289364,10.3124174 Z" id="search"></path>
            </g>
        </g>
    </g>
</svg>