<?xml version="1.0" encoding="UTF-8"?>
<svg width="16px" height="14px" viewBox="0 0 16 14" version="1.1" xmlns="http://www.w3.org/2000/svg" xmlns:xlink="http://www.w3.org/1999/xlink">
    <title>ic_warning</title>
    <g id="Ch1.Installer-Layout" stroke="none" stroke-width="1" fill="none" fill-rule="evenodd">
        <g id="00_00_07_administration-" transform="translate(-651.000000, -462.000000)" fill="#FEC400" fill-rule="nonzero">
            <path d="M666.675525,473.372509 L660.465284,462.947176 C660.106093,462.345591 659.573307,462 659.000521,462 C658.427736,462 657.89495,462.344791 657.536559,462.947176 L651.325518,473.374109 C650.955127,473.994093 650.898329,474.650876 651.167922,475.176463 C651.437515,475.69965 651.986301,476.000442 652.674283,476.000442 L665.32596,476.000442 C666.013942,476.000442 666.562728,475.69965 666.832321,475.176463 C667.101914,474.652476 667.044316,473.994093 666.674725,473.373309 L666.675525,473.372509 Z M658.999721,471.514957 C658.421336,471.514957 657.953348,471.014169 657.953348,470.398185 L657.953348,467.601457 C657.953348,466.984672 658.422136,466.483885 658.999721,466.483885 C659.577307,466.483885 660.046895,466.985472 660.046895,467.601457 L660.046895,470.398185 C660.046895,471.014169 659.577307,471.514957 658.999721,471.514957 L658.999721,471.514957 Z M660.046095,472.634928 C660.046095,472.94372 659.578107,473.192514 658.998921,473.192514 C658.419736,473.192514 657.952548,472.94372 657.952548,472.634928 C657.952548,472.324536 658.420536,472.075742 658.998921,472.075742 C659.577307,472.075742 660.046095,472.324536 660.046095,472.634928 Z" id="ic_warning"></path>
        </g>
    </g>
</svg>