<?xml version="1.0" encoding="UTF-8"?>
<svg width="212px" height="21px" viewBox="0 0 212 21" version="1.1" xmlns="http://www.w3.org/2000/svg" xmlns:xlink="http://www.w3.org/1999/xlink">
    <title>logo_installer</title>
    <g id="Ch1.Installer-Layout" stroke="none" stroke-width="1" fill="none" fill-rule="evenodd">
        <g id="00_05_04_Promethus" transform="translate(-378.000000, -144.000000)" fill="#FFFFFF">
            <g id="Group-7" transform="translate(361.000000, 124.000000)">
                <g id="logo_installer" transform="translate(17.000000, 20.000000)">
                    <path d="M12.630013,1.057014 C15.425525,1.057014 17.727411,3.028137 18.064246,5.573337 C18.079978,5.573127 18.095342,5.571006 18.111166,5.571006 C20.247958,5.571006 21.980318,7.303275 21.980318,9.439962 C21.980318,11.576838 20.247958,13.270929 18.111166,13.270929 L12.002,13.27 L12.0021694,13.8069385 C12.945922,14.049845 13.6888964,14.7928188 13.9317847,15.7365372 L18.200613,15.736497 L18.200613,16.962456 L13.9589662,16.9628977 C13.703264,18.1798076 12.6237091,19.093494 11.33072,19.093494 C10.037751,19.093494 8.95819864,18.1798076 8.70249678,16.9628977 L4.461034,16.962456 L4.461034,15.736497 L8.72967825,15.7365372 C8.97257171,14.7927973 9.71557238,14.0498111 10.6593445,13.8069218 L10.659,13.27 L4.569456,13.270929 L4.569456,13.313139 C3.067717,12.781398 1.990052,11.123931 1.990052,9.439962 C1.990052,7.303275 3.72232,5.571006 5.859204,5.571006 C6.320308,5.571006 6.760712,5.655867 7.170894,5.803833 C7.394546,3.148026 9.750482,1.057014 12.630013,1.057014 Z M11.33072,15.065106 C10.589154,15.065106 9.988141,15.666273 9.988141,16.407888 C9.988141,17.149461 10.589154,17.750733 11.33072,17.750733 C12.072309,17.750733 12.673598,17.149461 12.673598,16.407888 C12.673598,15.666273 12.072309,15.065106 11.33072,15.065106 Z M18.521532,8.185989 L14.493013,8.185989 L14.493013,9.528771 L15.611,9.528 L15.164498,12.214377 L16.507284,12.214377 L16.954,9.528 L18.521532,9.528771 L18.521532,8.185989 Z" id="Combined-shape-15086"></path>
                    <g id="logo" transform="translate(28.000000, 1.000000)">
                        <polygon id="Fill-1" points="9.25299883 2 8.45949003 6.77733283 5.11525807 6.77733283 5.90965796 2 2.16087463 2 -2.27373675e-13 15 3.74833779 15 4.61847968 9.76849518 7.96182055 9.76849518 7.09390637 15 10.8426897 15 13 2"></polygon>
                        <g id="Group-21" transform="translate(13.000000, 1.000000)">
                            <path d="M2.42842287,13.3075385 L0.984779255,3.42507692 L4.40828989,3.42507692 L4.75959309,6.82061538 C4.79169415,7.14046154 4.80751862,7.44369231 4.80751862,7.73492308 C4.80751862,8.028 4.79305053,8.30907692 4.76501862,8.58415385 C4.88438032,8.25184615 5.00238564,7.94215385 5.11722606,7.65323077 C5.23206649,7.36615385 5.34057713,7.11369231 5.44049734,6.89815385 L7.01661436,3.42507692 L10.2533963,3.42507692 L3.25129521,17.9976923 L0.256853723,17.9976923 L2.42842287,13.3075385 Z" id="Fill-2"></path>
                            <path d="M37.749992,3.78558462 C37.5646197,3.62081538 37.3579973,3.48004615 37.1025452,3.40712308 C36.8493537,3.31343077 36.5939016,3.26727692 36.3398059,3.26727692 C35.9247527,3.26727692 35.5309495,3.38404615 35.1389548,3.62081538 C34.7451516,3.85435385 34.3527048,4.21066154 33.9607101,4.65835385 L34.1225718,3.40712308 L30.9346197,3.40712308 L29.1532367,13.7871231 L32.3891144,13.7871231 L33.2675984,8.66958462 C33.3824388,7.93573846 33.5917739,7.41743077 33.8901782,7.06250769 C34.190391,6.71081538 34.5850984,6.5442 35.068875,6.5442 C35.2764016,6.5442 35.4857367,6.59081538 35.6941676,6.66373846 C35.8768271,6.73343077 36.0626516,6.82850769 36.2240612,6.94481538 L37.749992,3.78558462 Z" id="Fill-4"></path>
                            <path d="M8.60190957,18 L11.1161915,3.43476923 L14.1933723,3.43476923 L14.1486117,4.24061538 C14.4877074,3.90461538 14.8281596,3.65953846 15.1640904,3.50030769 C15.5013777,3.34430769 15.8508723,3.26584615 16.2085053,3.26584615 C17.2181064,3.26584615 17.9491968,3.74261538 18.403133,4.69523077 C18.8570691,5.64784615 18.9461383,6.91615385 18.6730532,8.496 C18.403133,10.0693846 17.8483723,11.346 17.0123883,12.3235385 C16.1750479,13.3010769 15.244117,13.7898462 14.2245691,13.7898462 C13.8719096,13.7898462 13.5680798,13.722 13.310367,13.5858462 C13.0544628,13.452 12.8311117,13.2415385 12.6421223,12.9586154 L11.7686117,18 L8.60190957,18 Z M13.0603404,10.5198462 C13.1620691,10.6458462 13.2732926,10.7376923 13.3899415,10.7972308 C13.5097553,10.86 13.6345426,10.8881538 13.770633,10.8881538 C14.1680532,10.8881538 14.5094096,10.6786154 14.7947021,10.2595385 C15.0818032,9.84184615 15.2893298,9.24553846 15.424516,8.47107692 C15.5578936,7.70815385 15.5533723,7.10584615 15.4123085,6.66230769 C15.2707926,6.21784615 15.0180532,5.99584615 14.6500213,5.99584615 C14.5157394,5.99584615 14.3755798,6.03461538 14.2295426,6.114 C14.0866702,6.19338462 13.9284255,6.31384615 13.7588777,6.47815385 L13.0603404,10.5198462 Z" id="Fill-6"></path>
                            <path d="M22.7511995,9.37993846 C22.738992,9.44824615 22.7222633,9.54655385 22.710508,9.67070769 C22.6973963,9.79486154 22.6901622,9.90470769 22.6901622,10.0030154 C22.6901622,10.5157846 22.8569973,10.8744 23.1884069,11.0820923 C23.5211729,11.2874769 23.9167846,11.3913231 24.3761463,11.3913231 C25.0796569,11.3913231 25.7519707,11.2994769 26.3876622,11.1125538 C27.024258,10.9251692 27.6079548,10.6662462 28.1351356,10.3344 L27.7901622,12.8654769 C27.6002686,13.0034769 27.3705878,13.1400923 27.0975027,13.2804 C26.8284867,13.4170154 26.5219441,13.5434769 26.1837527,13.6528615 C25.8455612,13.7627077 25.4879282,13.8522462 25.108141,13.9219385 C24.729258,13.9925538 24.3354548,14.0257846 23.928992,14.0257846 C23.252609,14.0257846 22.6372633,13.9159385 22.0820505,13.6962462 C21.5272899,13.4737846 21.0466782,13.1544 20.6469973,12.7408615 C20.2495771,12.3254769 19.9385133,11.8164 19.714258,11.2164 C19.4881941,10.6159385 19.377875,9.93978462 19.377875,9.19486154 C19.377875,8.41901538 19.4936197,7.67593846 19.7242048,6.96332308 C19.9538856,6.25070769 20.2866516,5.61932308 20.7184335,5.06547692 C21.1529282,4.51209231 21.6746835,4.07409231 22.2841516,3.74916923 C22.8940718,3.42424615 23.5840186,3.26224615 24.3558005,3.26224615 C25.129391,3.26224615 25.7845239,3.37486154 26.3275293,3.60424615 C26.8678218,3.83224615 27.3104548,4.15809231 27.6486463,4.57901538 C27.9868378,5.00086154 28.2287261,5.51732308 28.3797367,6.13486154 C28.5271303,6.74963077 28.6021835,7.44609231 28.6021835,8.21916923 C28.6021835,8.45316923 28.5954016,8.65716923 28.5818378,8.83024615 C28.5696303,9.00332308 28.5501888,9.18609231 28.5221569,9.37993846 L22.7511995,9.37993846 Z M25.3500293,7.40916923 C25.3658537,7.33993846 25.3712793,7.2624 25.3712793,7.17055385 L25.3712793,6.9324 C25.3712793,6.79578462 25.3604282,6.64532308 25.3414388,6.48609231 C25.3210931,6.32778462 25.2731676,6.17916923 25.1990186,6.04116923 C25.1230612,5.90224615 25.0276622,5.78870769 24.9042314,5.69870769 C24.7821569,5.60916923 24.6225559,5.56393846 24.4168378,5.56393846 C24.3485665,5.56393846 24.2504548,5.57870769 24.1215984,5.60501538 C23.9936463,5.63363077 23.8593644,5.70886154 23.7146835,5.83486154 C23.5740718,5.95947692 23.4357207,6.14455385 23.2987261,6.39516923 C23.1635399,6.64116923 23.0627154,6.98132308 22.9958005,7.40916923 L25.3500293,7.40916923 Z" id="Fill-8"></path>
                            <path d="M69.5879176,12.8473385 C69.0923856,13.2774923 68.6040878,13.5978 68.1248324,13.8087231 C67.6460293,14.0168769 67.1672261,14.1234923 66.685258,14.1234923 C65.7755771,14.1234923 65.1498324,13.8138 64.8089282,13.1925692 C64.4698324,12.5713385 64.4106037,11.6228769 64.6303378,10.3481077 L65.8366144,3.37195385 L69.107758,3.37195385 L67.9860293,9.86903077 C67.8942473,10.3896462 67.8996729,10.7574923 68.0045665,10.9790308 C68.1071995,11.2001077 68.3169867,11.3104154 68.636641,11.3104154 C68.7844867,11.3104154 68.948609,11.2799538 69.1321729,11.2181077 C69.3134761,11.1576462 69.5200984,11.0685692 69.7407367,10.9554923 L71.0537154,3.37195385 L74.324859,3.37195385 L73.2049388,9.84918462 C73.1244601,10.3185692 73.1335027,10.6241077 73.2325186,10.7634923 C73.3310824,10.9047231 73.5580505,10.9868769 73.917492,11.0131846 L72.7600452,13.9444154 C72.5127314,14.0081077 72.2839548,14.0542615 72.0764282,14.0819538 C71.8661888,14.1087231 71.6726782,14.1234923 71.4936356,14.1234923 C70.9574122,14.1234923 70.5346729,14.0201077 70.2218005,13.8124154 C69.9084761,13.6042615 69.6982367,13.2821077 69.5879176,12.8473385" id="Fill-10"></path>
                            <path d="M58.1169415,8.65970769 C58.2566489,7.86863077 58.4664362,7.22386154 58.7720745,6.7674 C59.0777128,6.31370769 59.4064096,6.07324615 59.7825798,6.07324615 C60.155133,6.07324615 60.41375,6.31370769 60.555266,6.7674 C60.6945213,7.22386154 60.6945213,7.86863077 60.555266,8.65970769 C60.41375,9.47201538 60.2017021,10.1190923 59.896516,10.5732462 C59.5926862,11.0287846 59.2648936,11.2683231 58.8674734,11.2683231 C58.5143617,11.2683231 58.2566489,11.0287846 58.1169415,10.5732462 C57.9749734,10.1190923 57.9749734,9.47201538 58.1169415,8.65970769 M63.3218351,4.68632308 C62.6893085,3.70463077 61.6580053,3.2034 60.2496277,3.22647692 C58.8674734,3.2034 57.6702394,3.70463077 56.6855053,4.68632308 C55.7007713,5.64355385 55.0677926,6.95847692 54.786117,8.65970769 C54.481383,10.3346308 54.6685638,11.6504769 55.3006383,12.6312462 C55.9589362,13.6138615 56.9902394,14.0920154 58.37375,14.0920154 C59.7825798,14.0920154 60.9771011,13.6138615 61.9627394,12.6312462 C62.9226064,11.6504769 63.5582979,10.3346308 63.8630319,8.65970769 C64.1659574,6.95847692 63.9796809,5.64355385 63.3218351,4.68632308" id="Fill-12"></path>
                            <path d="M79.5029415,11.1008308 L80.3461596,6.22836923 C80.1820372,6.15636923 80.0450426,6.10836923 79.9383404,6.0816 C79.8289255,6.05621538 79.7335266,6.04375385 79.6512394,6.04375385 C79.2113191,6.04375385 78.8414787,6.26113846 78.5403617,6.69267692 C78.2374362,7.12652308 78.0158936,7.75652308 77.8752819,8.58129231 C77.726984,9.42913846 77.7360266,10.0596 77.8965319,10.4759077 C78.0574894,10.8936 78.3690053,11.1008308 78.8342447,11.1008308 L79.5029415,11.1008308 Z M82.2591117,13.8492923 L79.0756809,13.8492923 C78.0177021,13.8492923 77.2377819,13.7717538 76.7354681,13.6176 C76.2313457,13.4634462 75.8027287,13.2072923 75.449617,12.8449846 C74.9879947,12.3751385 74.6877819,11.7645231 74.5453617,11.0145231 C74.4024894,10.2654462 74.4246436,9.36452308 74.6063989,8.31544615 C74.8668245,6.80344615 75.4233936,5.57483077 76.2788191,4.6296 C77.1301755,3.68206154 78.1013457,3.20990769 79.1841915,3.20990769 C79.5029415,3.20990769 79.7995372,3.25006154 80.0662926,3.32944615 C80.3339521,3.40929231 80.5722234,3.52652308 80.7860798,3.68067692 L81.3616383,0.344215385 L84.5902819,0.344215385 L82.2591117,13.8492923 Z" id="Fill-14"></path>
                            <polygon id="Fill-16" points="52.959883 13.8492923 49.2121968 13.8492923 51.4127021 0.350676923 55.1603883 0.350676923"></polygon>
                            <path d="M48.3564548,12.6197538 C47.8035027,13.0508308 47.1221463,13.4029846 46.3128378,13.6780615 C45.5030771,13.9531385 44.6245931,14.0916 43.6760293,14.0916 C42.8477314,14.0916 42.0904176,13.9762154 41.404992,13.7482154 C40.7204707,13.5202154 40.1376782,13.1569846 39.6575186,12.6594462 C39.1778112,12.1632923 38.805258,11.5185231 38.5430239,10.7256 C38.2789814,9.93267692 38.1474122,8.97821538 38.1474122,7.86267692 C38.1474122,6.99036923 38.2825984,6.09406154 38.5516144,5.17421538 C38.822891,4.25344615 39.226641,3.41529231 39.7669335,2.65606154 C40.3063218,1.89683077 40.9723059,1.27421538 41.7617207,0.790984615 C42.5502314,0.306830769 43.4712154,0.0649846154 44.5255771,0.0649846154 C45.0654176,0.0649846154 45.6242473,0.158676923 46.2034229,0.346061538 C46.7821463,0.532984615 47.316109,0.832523077 47.8035027,1.24698462 C48.2886356,1.66052308 48.6946463,2.19221538 49.0179176,2.84067692 C49.3393803,3.48913846 49.5134495,4.28390769 49.5396729,5.22544615 L45.9466144,5.76867692 C45.9606303,5.47375385 45.9511356,5.16406154 45.9181303,4.84098462 C45.8846729,4.51836923 45.8114282,4.22990769 45.7002048,3.97467692 C45.5898856,3.71990769 45.438875,3.50898462 45.2489814,3.34098462 C45.059992,3.17298462 44.8081569,3.08944615 44.4930239,3.08944615 C44.1787952,3.08944615 43.9147527,3.17021538 43.6981835,3.33175385 C43.483875,3.49236923 43.3016676,3.69913846 43.1587952,3.94698462 C43.0141144,4.19667692 42.9001782,4.46990769 42.8133697,4.76529231 C42.7288218,5.06067692 42.6596463,5.34452308 42.6076516,5.61267692 C42.5167739,6.03036923 42.4399122,6.49883077 42.3815878,7.01713846 C42.3232633,7.53729231 42.2879973,8.01683077 42.2739814,8.46175385 C42.2482101,9.22975385 42.4118803,9.82606154 42.7668005,10.2506769 C43.1199122,10.6748308 43.724859,10.8862154 44.5771197,10.8862154 C45.4045133,10.8862154 46.1812686,10.7431385 46.9100984,10.4537538 C47.6375718,10.1652923 48.3044601,9.78498462 48.9075984,9.31421538 L48.3564548,12.6197538 Z" id="Fill-18"></path>
                        </g>
                        <g id="Group-20" transform="translate(102.000000, 0.000000)">
                            <polygon id="Fill-1" points="2.47561236 0.220464455 4.40884821e-05 15.0928321 4.21512342 15.0928321 6.68936903 0.220464455"></polygon>
                            <path d="M5.74503481,15.092766 L7.77376631,3.58390862 L11.4062163,3.58390862 L11.2327282,4.56553867 C11.8164597,4.15683844 12.3483872,3.85813898 12.8320379,3.67186514 C13.3132636,3.48581175 13.7775154,3.39168284 14.2261157,3.39168284 C15.2458823,3.39168284 15.9438029,3.72807796 16.3167915,4.40152952 C16.6900005,5.07630374 16.7554719,6.10356537 16.5123239,7.48618017 L15.1715932,15.092766 L11.5389227,15.092766 L12.7875085,8.00686514 C12.8829601,7.46149062 12.8765672,7.07086667 12.7670073,6.83653638 C12.6561248,6.60330831 12.4215741,6.48559207 12.0635756,6.48559207 C11.8883239,6.48559207 11.6960981,6.51689489 11.4844734,6.57685523 C11.2739509,6.637036 11.0568151,6.72389031 10.8337274,6.83653638 L9.3772644,15.092766 L5.74503481,15.092766 Z" id="Fill-2"></path>
                            <path d="M17.151185,14.1765632 L17.7285237,10.9082841 C18.0988669,11.2479858 18.4509135,11.4990697 18.7831202,11.6624175 C19.1164291,11.825104 19.4453292,11.9046838 19.7709226,11.9046838 C20.0901232,11.9046838 20.3511271,11.8273085 20.5590042,11.6688104 C20.7677632,11.5120758 20.8980447,11.291413 20.946542,11.0123329 C21.0065023,10.6682223 20.7426328,10.3245526 20.1529493,9.98022151 C19.8710035,9.81665324 19.660481,9.6813016 19.524468,9.57262349 C18.969394,9.13989504 18.6142613,8.72369977 18.456645,8.32734432 C18.3005718,7.92944577 18.2716938,7.44028406 18.3748608,6.86603158 C18.5719364,5.74397971 19.1221606,4.83840229 20.022227,4.14996064 C20.9222933,3.46041678 22.0053269,3.11542441 23.2702255,3.11542441 C23.7470424,3.11542441 24.1978471,3.1709759 24.6272689,3.28648772 C25.0544863,3.40001556 25.4737678,3.56843356 25.8807045,3.7952688 L25.3712621,6.68813455 C25.0677129,6.54793318 24.7848853,6.44057773 24.5124184,6.37378368 C24.2428174,6.30588741 23.9787274,6.2714984 23.723455,6.2714984 C23.3487029,6.2714984 23.0436107,6.34071732 22.8112644,6.48069825 C22.5789181,6.61803387 22.439378,6.81114142 22.3930851,7.061564 C22.3410607,7.36841983 22.5696595,7.6874 23.086156,8.02269291 C23.2618486,8.14614066 23.3972003,8.24115133 23.490227,8.31279512 C24.1114337,8.76051365 24.5267472,9.21903387 24.7352857,9.6813016 C24.9429425,10.1464351 24.9923216,10.6944549 24.8785733,11.3291086 C24.6801751,12.4628439 24.1400912,13.3728302 23.2618486,14.0617127 C22.3842674,14.7494931 21.3276869,15.0927219 20.0925481,15.0927219 C19.5085962,15.0927219 18.969394,15.0160079 18.4731782,14.8630209 C17.9796076,14.711577 17.5387228,14.4836395 17.151185,14.1765632" id="Fill-4"></path>
                            <path d="M80.2206283,3.97226201 C80.0098854,3.78929481 79.7751142,3.63256026 79.4856733,3.55209878 C79.1982164,3.44782952 78.9094368,3.396246 78.6202164,3.396246 C78.1482492,3.396246 77.7018533,3.5267479 77.2558983,3.78929481 C76.8101638,4.05051907 76.365311,4.44533143 75.919356,4.9426495 L76.103205,3.55209878 L72.4844223,3.55209878 L70.4634063,15.0929203 L74.1366382,15.0929203 L75.1334788,9.40197902 C75.2637603,8.58810564 75.5013972,8.01120786 75.8404376,7.61683638 C76.181462,7.22511022 76.6276375,7.04082037 77.1783026,7.04082037 C77.4143964,7.04082037 77.6502698,7.09328566 77.8868045,7.17220404 C78.0951226,7.2504611 78.3065268,7.35561213 78.4892736,7.48633448 L80.2206283,3.97226201 Z" id="Fill-6"></path>
                            <path d="M32.5072003,14.5253031 C32.0892415,14.7117974 31.6554108,14.8515579 31.2004177,14.9476708 C30.7467472,15.044445 30.2884474,15.0927219 29.8264002,15.0927219 C28.5853094,15.0927219 27.74851,14.801297 27.3184268,14.2204313 C26.8894459,13.6389042 26.7975214,12.6506609 27.042433,11.2592284 L27.9685115,6.01247857 L26.7540943,6.01247857 L27.0732949,4.20705523 L31.4248281,0.324843936 L32.6447564,0.324843936 L32.1170172,3.33013532 L34.4775146,3.33013532 L34.0055474,6.01247857 L31.6424047,6.01247857 L30.9486725,9.94605294 C30.8384513,10.5723298 30.8474894,10.9896273 30.9729211,11.1946387 C31.1025413,11.4011933 31.3948479,11.5059034 31.8520455,11.5059034 C32.0709448,11.5059034 32.2832308,11.4801117 32.4886831,11.4318348 C32.6941355,11.3809126 32.8920928,11.3077257 33.0902705,11.2160217 L32.5072003,14.5253031 Z" id="Fill-9"></path>
                            <polygon id="Fill-11" points="51.2306087 15.0929864 47.018836 15.0929864 49.4926407 0.229436461 53.7037521 0.229436461"></polygon>
                            <polygon id="Fill-13" points="56.9711024 15.0929864 52.7593297 15.0929864 55.2331344 0.229436461 59.4442458 0.229436461"></polygon>
                            <path d="M66.1261168,7.73550053 C66.1433113,7.65922746 66.1490428,7.5710505 66.1490428,7.47052876 L66.1490428,7.20577742 C66.1490428,7.0523495 66.1373593,6.88657681 66.1146538,6.71022288 C66.0919482,6.53276674 66.0372785,6.36743494 65.9543921,6.21422746 C65.8684196,6.06013822 65.7597415,5.93338383 65.6190992,5.83308253 C65.4817636,5.73322212 65.2981351,5.68362258 65.0660092,5.68362258 C64.9890748,5.68362258 64.8768696,5.69927399 64.7309367,5.72991548 C64.5850039,5.76055698 64.4324577,5.84476598 64.2695508,5.98386514 C64.1092891,6.12164165 63.9512319,6.3292984 63.7967018,6.60617407 C63.644817,6.88238841 63.5299665,7.25912449 63.4528116,7.73550053 L66.1261168,7.73550053 Z M63.1750542,9.92713898 C63.1607255,10.0034121 63.1433105,10.1112084 63.1289817,10.2492053 C63.1148734,10.3878636 63.1062762,10.5108705 63.1062762,10.6184464 C63.1062762,11.1876287 63.2956362,11.5870703 63.6708292,11.8178735 C64.0488879,12.0482359 64.4985904,12.1635272 65.0203776,12.1635272 C65.8197018,12.1635272 66.5815508,12.0596989 67.304161,11.8529239 C68.0261099,11.6450467 68.6883189,11.3571489 69.2870405,10.9872465 L68.8948734,13.8014143 C68.6797216,13.9555036 68.4187178,14.1082702 68.1092167,14.2623594 C67.8023608,14.4166691 67.4556049,14.5548865 67.0720351,14.677232 C66.6880245,14.8006798 66.2810878,14.9000993 65.8514455,14.9772542 C65.4215828,15.0541886 64.9743052,15.092766 64.5131396,15.092766 C63.7451183,15.092766 63.0456545,14.9693182 62.4156301,14.7239658 C61.7851648,14.4781725 61.2404516,14.124142 60.7878833,13.6631969 C60.3350946,13.2015905 59.9826072,12.6361558 59.7279962,11.9679948 C59.472283,11.2987317 59.3466309,10.5498888 59.3466309,9.71926178 C59.3466309,8.85821373 59.478235,8.03243646 59.7392388,7.23972555 C60.0000222,6.4483373 60.3783013,5.74468513 60.8683448,5.13031213 C61.3610336,4.51505736 61.9542441,4.02677742 62.6448902,3.66481098 C63.3379611,3.30438764 64.1205317,3.12384531 64.9976721,3.12384531 C65.8743715,3.12384531 66.619026,3.25059969 67.2351625,3.50454935 C67.8482129,3.75783768 68.3499398,4.11958368 68.73373,4.5880238 C69.1177407,5.05734569 69.3928528,5.63336171 69.5652388,6.31739451 C69.7314524,7.00208863 69.8167636,7.77451884 69.8167636,8.63512601 C69.8167636,8.89701159 69.8083868,9.12340595 69.794058,9.31541129 C69.7799497,9.50785751 69.7572441,9.71132586 69.7255004,9.92713898 L63.1750542,9.92713898 Z" id="Fill-15"></path>
                            <path d="M39.8229124,12.3680317 C40.3308117,12.3680317 40.72364,12.2295938 41.0020588,11.9524977 L41.4178132,9.43548627 C41.1398353,9.46656865 40.8700138,9.5318196 40.60901,9.63190046 C40.3480062,9.73176087 40.1123532,9.86336499 39.9031534,10.0242879 C39.6968193,10.1858722 39.5301648,10.3822864 39.4067171,10.6135305 C39.2832693,10.8447746 39.2230886,11.1134939 39.2230886,11.4216724 C39.2230886,11.806124 39.2777583,12.0602941 39.3840115,12.1835214 C39.4926896,12.3071895 39.6392838,12.3680317 39.8229124,12.3680317 L39.8229124,12.3680317 Z M37.5131168,4.35583181 C37.7454631,4.20174256 38.0236614,4.0480942 38.3455073,3.89378452 C38.6697781,3.7403566 39.016534,3.60456407 39.3840115,3.48949314 C39.7541343,3.37354043 40.1328544,3.28205683 40.5173059,3.21239703 C40.9017575,3.14339855 41.2776118,3.10834821 41.6472937,3.10834821 C42.2186805,3.10834821 42.7521511,3.15464111 43.2512327,3.2465656 C43.7531801,3.33915141 44.1751069,3.52454348 44.5225241,3.80097826 C44.8697209,4.07829481 45.1223479,4.47487071 45.2861366,4.99048551 C45.4461778,5.50587986 45.4724105,6.17955187 45.3661572,7.01106064 L44.8582579,11.1672818 C44.8128468,11.5680461 44.8412838,11.806124 44.9501824,11.8828379 C45.0562152,11.9602132 45.1739314,11.9985702 45.2975996,11.9985702 C45.4206065,11.9985702 45.5667598,11.9524977 45.7358391,11.8601323 L45.0877384,14.8389706 C44.8582579,14.9161255 44.6199596,14.9776289 44.373505,15.0241423 C44.1266095,15.0699943 43.8484112,15.0926998 43.5413349,15.0926998 C42.4483815,15.0926998 41.678817,14.577085 41.2315394,13.5458555 C40.8933807,14.0233337 40.4886484,14.4002902 40.0206492,14.6776068 C39.5502251,14.954262 38.9933876,15.0926998 38.3455073,15.0926998 C37.8517163,15.0926998 37.4156812,15.0431003 37.0281435,14.942799 C36.6436919,14.8424977 36.3222869,14.6776068 36.0586378,14.4463627 C35.7976339,14.2155595 35.59637,13.9038539 35.4585935,13.511246 C35.3210375,13.1188585 35.2522594,12.6303581 35.2522594,12.0450835 C35.2522594,11.7216945 35.3009772,11.3868425 35.4014989,11.040307 C35.5013593,10.6935511 35.6625027,10.3558333 35.8862518,10.0242879 C36.1100008,9.69384477 36.3939307,9.38169832 36.7411275,9.08939169 C37.0885447,8.79730549 37.5073853,8.54291495 37.9980901,8.32732227 C38.6151084,8.06543669 39.2147117,7.87673799 39.7999863,7.76122616 C40.3852609,7.64593478 41.0307163,7.57252746 41.7392182,7.54188596 L41.8084371,6.96432685 C41.8710428,6.61073722 41.7795592,6.36053509 41.5326637,6.21394088 C41.2862091,6.06778757 41.0020588,5.99504157 40.6780085,5.99504157 C39.9404082,5.99504157 39.2720268,6.09534287 38.6808002,6.29550458 C38.0871488,6.49566629 37.5305317,6.76526735 37.0052175,7.10364645 L37.5131168,4.35583181 Z" id="Fill-17"></path>
                        </g>
                    </g>
                </g>
            </g>
        </g>
    </g>
</svg>